<svg width="298.726" height="25.9" viewBox="0 0 292.726 25.9" xmlns="http://www.w3.org/2000/svg"><g id="svgGroup" stroke-linecap="round" fill-rule="evenodd" font-size="9pt" stroke="#000094" stroke-width="0.25mm" fill="#000094" style="stroke:#000094;stroke-width:0.25mm;fill:#000094"><path d="M 39.13 20.216 L 36.694 20.216 L 36.694 0.616 L 39.158 0.616 L 47.838 14.56 Q 48.048 14.91 48.244 15.26 Q 48.44 15.61 48.65 16.016 Q 48.636 15.652 48.615 15.288 A 12.546 12.546 0 0 1 48.595 14.758 A 11.093 11.093 0 0 1 48.594 14.588 L 48.594 0.616 L 51.03 0.616 L 51.03 20.216 L 48.678 20.216 L 39.858 6.216 A 67.368 67.368 0 0 0 39.573 5.717 A 77.007 77.007 0 0 0 39.473 5.544 Q 39.27 5.194 39.074 4.844 Q 39.102 5.152 39.116 5.516 Q 39.13 5.88 39.13 6.216 L 39.13 20.216 Z M 14.672 3.724 L 12.488 4.984 Q 11.816 4.018 10.878 3.297 A 3.229 3.229 0 0 0 9.789 2.762 Q 9.343 2.634 8.814 2.594 A 6.618 6.618 0 0 0 8.316 2.576 Q 6.724 2.576 5.627 3.244 A 3.969 3.969 0 0 0 5.565 3.283 Q 4.452 3.99 3.78 5.152 Q 3.108 6.314 2.814 7.693 Q 2.52 9.072 2.52 10.416 Q 2.52 11.928 2.856 13.328 Q 3.192 14.728 3.892 15.834 Q 4.592 16.94 5.691 17.584 A 4.605 4.605 0 0 0 7.232 18.137 A 6.225 6.225 0 0 0 8.316 18.228 A 5.214 5.214 0 0 0 9.488 18.102 A 4.086 4.086 0 0 0 10.633 17.654 Q 11.62 17.08 12.166 16.065 A 4.549 4.549 0 0 0 12.659 14.52 A 5.83 5.83 0 0 0 12.712 13.72 L 12.712 12.936 L 9.156 12.936 L 9.156 10.696 L 15.26 10.696 L 15.26 13.048 Q 15.26 15.247 14.513 16.824 A 6.336 6.336 0 0 1 14.343 17.157 A 6.429 6.429 0 0 1 12.835 19.021 A 6.043 6.043 0 0 1 11.851 19.691 A 7.078 7.078 0 0 1 8.919 20.531 A 8.537 8.537 0 0 1 8.316 20.552 A 9.774 9.774 0 0 1 6.522 20.396 Q 5.445 20.195 4.565 19.735 A 6.144 6.144 0 0 1 4.508 19.705 Q 2.926 18.858 1.932 17.409 A 10.178 10.178 0 0 1 0.534 14.386 A 11.568 11.568 0 0 1 0.469 14.147 Q 0 12.334 0 10.416 Q 0 8.512 0.497 6.706 A 10.536 10.536 0 0 1 1.823 3.726 A 9.951 9.951 0 0 1 2.009 3.451 Q 3.024 2.002 4.592 1.141 A 6.83 6.83 0 0 1 6.721 0.411 A 9.268 9.268 0 0 1 8.316 0.28 A 11.178 11.178 0 0 1 9.595 0.349 Q 10.59 0.464 11.347 0.77 A 6.665 6.665 0 0 1 12.451 1.335 A 5.216 5.216 0 0 1 13.342 2.051 A 9.617 9.617 0 0 1 14.459 3.396 A 8.719 8.719 0 0 1 14.672 3.724 Z M 32.368 20.216 L 20.104 20.216 L 20.104 0.616 L 31.752 0.616 L 31.752 2.912 L 22.54 2.912 L 22.54 8.932 L 28.616 8.932 L 28.616 11.228 L 22.54 11.228 L 22.54 17.892 L 32.368 17.892 L 32.368 20.216 Z M 201.754 20.216 L 189.49 20.216 L 189.49 0.616 L 201.138 0.616 L 201.138 2.912 L 191.926 2.912 L 191.926 8.932 L 198.002 8.932 L 198.002 11.228 L 191.926 11.228 L 191.926 17.892 L 201.754 17.892 L 201.754 20.216 Z M 69.342 20.216 L 66.626 20.216 L 72.45 10.08 L 67.046 0.616 L 69.79 0.616 L 73.822 7.7 L 77.798 0.616 L 80.486 0.616 L 75.11 9.94 L 80.99 20.216 L 78.246 20.216 L 73.738 12.292 L 69.342 20.216 Z M 143.374 20.216 L 140.938 20.216 L 140.938 5.908 L 143.374 5.908 L 143.374 7.364 A 4.425 4.425 0 0 1 144.249 6.449 A 3.888 3.888 0 0 1 144.956 6.013 A 4.485 4.485 0 0 1 146.283 5.624 A 5.753 5.753 0 0 1 147.07 5.572 Q 149.031 5.572 150.229 6.465 A 3.828 3.828 0 0 1 150.934 7.147 Q 152.182 8.707 152.194 11.924 A 16.752 16.752 0 0 1 152.194 11.984 L 152.194 20.216 L 149.758 20.216 L 149.758 11.564 A 6.532 6.532 0 0 0 149.679 10.517 Q 149.588 9.952 149.388 9.499 A 3.014 3.014 0 0 0 148.953 8.785 A 2.62 2.62 0 0 0 147.289 7.859 A 3.852 3.852 0 0 0 146.678 7.812 A 4.605 4.605 0 0 0 145.733 7.903 Q 145.145 8.026 144.701 8.317 A 2.505 2.505 0 0 0 144.207 8.743 A 2.941 2.941 0 0 0 143.623 9.772 Q 143.475 10.207 143.415 10.738 A 6.851 6.851 0 0 0 143.374 11.508 L 143.374 20.216 Z M 207.298 20.216 L 204.582 20.216 L 209.37 12.768 L 204.946 5.908 L 207.662 5.908 L 209.93 9.38 Q 210.168 9.73 210.371 10.08 A 18.103 18.103 0 0 1 210.634 10.548 A 15.379 15.379 0 0 1 210.742 10.752 Q 210.938 10.416 211.148 10.073 Q 211.358 9.73 211.582 9.38 L 213.822 5.908 L 216.566 5.908 L 212.114 12.768 L 216.93 20.216 L 214.186 20.216 L 211.554 16.156 A 35.921 35.921 0 0 1 211.234 15.626 A 31.139 31.139 0 0 1 211.134 15.456 L 210.742 14.784 Q 210.574 15.12 210.371 15.456 Q 210.168 15.792 209.93 16.156 L 207.298 20.216 Z M 117.67 18.144 L 119.406 16.66 A 5.851 5.851 0 0 0 120.607 17.656 A 5.302 5.302 0 0 0 121.086 17.92 A 4.613 4.613 0 0 0 122.06 18.27 A 3.75 3.75 0 0 0 122.906 18.368 Q 124.166 18.368 124.866 17.885 A 1.642 1.642 0 0 0 125.341 17.396 Q 125.566 17.032 125.566 16.548 Q 125.566 15.988 125.251 15.54 Q 125.022 15.215 124.58 14.912 A 4.909 4.909 0 0 0 124.215 14.686 Q 123.731 14.413 123.028 14.121 A 21.251 21.251 0 0 0 122.29 13.832 A 16.774 16.774 0 0 1 121.003 13.295 Q 119.619 12.642 118.895 11.914 A 3.484 3.484 0 0 1 117.866 9.4 A 4.493 4.493 0 0 1 117.866 9.352 Q 117.866 7.672 119.203 6.622 A 4.736 4.736 0 0 1 121.06 5.749 Q 121.751 5.584 122.559 5.573 A 8.6 8.6 0 0 1 122.682 5.572 A 6.816 6.816 0 0 1 124.55 5.822 A 6.095 6.095 0 0 1 125.384 6.125 Q 126.616 6.678 127.498 7.728 L 125.818 9.128 A 4.159 4.159 0 0 0 122.8 7.758 A 5.038 5.038 0 0 0 122.654 7.756 Q 121.548 7.756 120.911 8.183 A 1.514 1.514 0 0 0 120.511 8.564 Q 120.274 8.899 120.274 9.352 Q 120.274 10.051 120.966 10.583 A 2.789 2.789 0 0 0 120.995 10.605 Q 121.542 11.014 122.763 11.516 A 25.694 25.694 0 0 0 123.606 11.844 A 15.433 15.433 0 0 1 124.679 12.278 Q 125.506 12.651 126.105 13.062 A 5.122 5.122 0 0 1 126.845 13.673 A 3.706 3.706 0 0 1 127.505 14.56 Q 127.946 15.4 127.946 16.492 A 4.221 4.221 0 0 1 127.739 17.846 A 3.455 3.455 0 0 1 126.588 19.467 A 4.61 4.61 0 0 1 124.976 20.28 Q 124.041 20.552 122.85 20.552 Q 121.338 20.552 119.945 19.901 A 6.52 6.52 0 0 1 118.337 18.851 A 5.85 5.85 0 0 1 117.67 18.144 Z M 97.09 20.216 L 94.654 20.216 L 94.654 2.94 L 89.194 2.94 L 89.194 0.616 L 102.55 0.616 L 102.55 2.94 L 97.09 2.94 L 97.09 20.216 Z M 132.426 17.136 L 132.426 8.036 L 130.102 8.036 L 130.102 5.908 L 132.426 5.908 L 132.426 1.176 L 134.862 0 L 134.862 5.908 L 138.39 5.908 L 138.39 8.036 L 134.862 8.036 L 134.862 16.324 A 4.646 4.646 0 0 0 134.889 16.848 Q 134.952 17.395 135.155 17.722 A 1.188 1.188 0 0 0 135.219 17.815 Q 135.551 18.251 136.24 18.282 A 2.39 2.39 0 0 0 136.346 18.284 A 2.986 2.986 0 0 0 137.269 18.129 Q 137.648 18.006 138.048 17.786 A 6.255 6.255 0 0 0 138.474 17.528 L 138.194 19.908 Q 137.564 20.244 136.885 20.398 A 6.321 6.321 0 0 1 135.731 20.547 A 7.217 7.217 0 0 1 135.45 20.552 Q 134.165 20.552 133.41 19.878 A 2.439 2.439 0 0 1 133.203 19.67 A 2.858 2.858 0 0 1 132.633 18.635 Q 132.426 17.988 132.426 17.136 Z M 172.858 17.136 L 172.858 8.036 L 170.534 8.036 L 170.534 5.908 L 172.858 5.908 L 172.858 1.176 L 175.294 0 L 175.294 5.908 L 178.822 5.908 L 178.822 8.036 L 175.294 8.036 L 175.294 16.324 A 4.646 4.646 0 0 0 175.321 16.848 Q 175.384 17.395 175.587 17.722 A 1.188 1.188 0 0 0 175.651 17.815 Q 175.983 18.251 176.672 18.282 A 2.39 2.39 0 0 0 176.778 18.284 A 2.986 2.986 0 0 0 177.701 18.129 Q 178.08 18.006 178.48 17.786 A 6.255 6.255 0 0 0 178.906 17.528 L 178.626 19.908 Q 177.996 20.244 177.317 20.398 A 6.321 6.321 0 0 1 176.163 20.547 A 7.217 7.217 0 0 1 175.882 20.552 Q 174.597 20.552 173.842 19.878 A 2.439 2.439 0 0 1 173.635 19.67 A 2.858 2.858 0 0 1 173.065 18.635 Q 172.858 17.988 172.858 17.136 Z M 222.95 24.752 L 220.514 25.9 L 220.514 5.908 L 222.95 5.908 L 222.95 7.112 A 5.191 5.191 0 0 1 224.865 5.868 A 5.123 5.123 0 0 1 226.618 5.572 Q 228.438 5.572 229.761 6.482 A 5.538 5.538 0 0 1 231.393 8.257 A 7.098 7.098 0 0 1 231.805 9.072 Q 232.526 10.752 232.526 13.048 Q 232.526 15.253 231.854 16.897 A 7.489 7.489 0 0 1 231.798 17.031 A 6.69 6.69 0 0 1 230.937 18.505 A 5.425 5.425 0 0 1 229.747 19.635 A 5.144 5.144 0 0 1 227.338 20.513 A 6.576 6.576 0 0 1 226.618 20.552 Q 225.484 20.552 224.574 20.139 A 4.41 4.41 0 0 1 223.284 19.236 A 5.376 5.376 0 0 1 222.95 18.872 L 222.95 24.752 Z M 115.178 14.056 L 105.49 14.056 Q 105.63 15.358 106.134 16.338 A 4.323 4.323 0 0 0 106.803 17.305 A 3.717 3.717 0 0 0 107.464 17.871 A 3.268 3.268 0 0 0 108.93 18.397 A 4.176 4.176 0 0 0 109.41 18.424 A 4.514 4.514 0 0 0 110.649 18.258 A 4.084 4.084 0 0 0 111.097 18.102 A 4.244 4.244 0 0 0 112.158 17.459 A 5.213 5.213 0 0 0 112.546 17.108 L 113.974 18.704 A 6.056 6.056 0 0 1 112.728 19.653 A 7.559 7.559 0 0 1 111.993 20.027 A 6.131 6.131 0 0 1 110.108 20.515 A 7.518 7.518 0 0 1 109.354 20.552 A 7.95 7.95 0 0 1 109.323 20.552 Q 107.383 20.544 105.966 19.586 A 6.159 6.159 0 0 1 103.931 17.263 A 7.457 7.457 0 0 1 103.768 16.926 A 8.476 8.476 0 0 1 103.106 14.617 A 10.978 10.978 0 0 1 102.998 13.048 A 11.773 11.773 0 0 1 103.13 11.24 Q 103.286 10.234 103.628 9.39 A 6.93 6.93 0 0 1 103.796 9.009 A 6.402 6.402 0 0 1 104.848 7.425 A 5.522 5.522 0 0 1 106.022 6.454 Q 107.45 5.572 109.354 5.572 A 6.235 6.235 0 0 1 111.795 6.048 A 6.017 6.017 0 0 1 112.308 6.293 A 5.047 5.047 0 0 1 114.108 7.94 A 6.399 6.399 0 0 1 114.457 8.519 Q 115.117 9.753 115.236 11.556 A 12.468 12.468 0 0 1 115.262 12.376 A 13.101 13.101 0 0 1 115.258 12.69 Q 115.253 12.905 115.241 13.153 Q 115.22 13.594 115.178 14.056 Z M 168.462 14.056 L 158.774 14.056 Q 158.914 15.358 159.418 16.338 A 4.323 4.323 0 0 0 160.087 17.305 A 3.717 3.717 0 0 0 160.748 17.871 A 3.268 3.268 0 0 0 162.214 18.397 A 4.176 4.176 0 0 0 162.694 18.424 A 4.514 4.514 0 0 0 163.933 18.258 A 4.084 4.084 0 0 0 164.381 18.102 A 4.244 4.244 0 0 0 165.442 17.459 A 5.213 5.213 0 0 0 165.83 17.108 L 167.258 18.704 A 6.056 6.056 0 0 1 166.012 19.653 A 7.559 7.559 0 0 1 165.277 20.027 A 6.131 6.131 0 0 1 163.392 20.515 A 7.518 7.518 0 0 1 162.638 20.552 A 7.95 7.95 0 0 1 162.607 20.552 Q 160.667 20.544 159.25 19.586 A 6.159 6.159 0 0 1 157.215 17.263 A 7.457 7.457 0 0 1 157.052 16.926 A 8.476 8.476 0 0 1 156.39 14.617 A 10.978 10.978 0 0 1 156.282 13.048 A 11.773 11.773 0 0 1 156.414 11.24 Q 156.57 10.234 156.912 9.39 A 6.93 6.93 0 0 1 157.08 9.009 A 6.402 6.402 0 0 1 158.132 7.425 A 5.522 5.522 0 0 1 159.306 6.454 Q 160.734 5.572 162.638 5.572 A 6.235 6.235 0 0 1 165.079 6.048 A 6.017 6.017 0 0 1 165.592 6.293 A 5.047 5.047 0 0 1 167.392 7.94 A 6.399 6.399 0 0 1 167.741 8.519 Q 168.401 9.753 168.52 11.556 A 12.468 12.468 0 0 1 168.546 12.376 A 13.101 13.101 0 0 1 168.542 12.69 Q 168.537 12.905 168.525 13.153 Q 168.504 13.594 168.462 14.056 Z M 280.686 14.056 L 270.998 14.056 Q 271.138 15.358 271.642 16.338 A 4.323 4.323 0 0 0 272.311 17.305 A 3.717 3.717 0 0 0 272.972 17.871 A 3.268 3.268 0 0 0 274.438 18.397 A 4.176 4.176 0 0 0 274.918 18.424 A 4.514 4.514 0 0 0 276.157 18.258 A 4.084 4.084 0 0 0 276.605 18.102 A 4.244 4.244 0 0 0 277.666 17.459 A 5.213 5.213 0 0 0 278.054 17.108 L 279.482 18.704 A 6.056 6.056 0 0 1 278.236 19.653 A 7.559 7.559 0 0 1 277.501 20.027 A 6.131 6.131 0 0 1 275.616 20.515 A 7.518 7.518 0 0 1 274.862 20.552 A 7.95 7.95 0 0 1 274.831 20.552 Q 272.891 20.544 271.474 19.586 A 6.159 6.159 0 0 1 269.439 17.263 A 7.457 7.457 0 0 1 269.276 16.926 A 8.476 8.476 0 0 1 268.614 14.617 A 10.978 10.978 0 0 1 268.506 13.048 A 11.773 11.773 0 0 1 268.638 11.24 Q 268.794 10.234 269.136 9.39 A 6.93 6.93 0 0 1 269.304 9.009 A 6.402 6.402 0 0 1 270.356 7.425 A 5.522 5.522 0 0 1 271.53 6.454 Q 272.958 5.572 274.862 5.572 A 6.235 6.235 0 0 1 277.303 6.048 A 6.017 6.017 0 0 1 277.816 6.293 A 5.047 5.047 0 0 1 279.616 7.94 A 6.399 6.399 0 0 1 279.965 8.519 Q 280.625 9.753 280.744 11.556 A 12.468 12.468 0 0 1 280.77 12.376 A 13.101 13.101 0 0 1 280.766 12.69 Q 280.761 12.905 280.749 13.153 Q 280.728 13.594 280.686 14.056 Z M 261.59 20.216 L 259.154 20.216 L 259.154 5.908 L 261.59 5.908 L 261.59 7.784 A 4.316 4.316 0 0 1 262.121 6.89 A 3.366 3.366 0 0 1 262.941 6.132 Q 263.802 5.572 264.978 5.572 A 3.87 3.87 0 0 1 266.113 5.732 A 3.208 3.208 0 0 1 267.19 6.3 L 266.826 8.596 A 3.435 3.435 0 0 0 266.129 8.217 A 3.071 3.071 0 0 0 265.867 8.127 Q 265.37 7.98 264.782 7.98 A 3.028 3.028 0 0 0 263.833 8.124 A 2.637 2.637 0 0 0 263.102 8.498 A 3.162 3.162 0 0 0 262.254 9.434 A 4.101 4.101 0 0 0 261.989 9.954 A 4.814 4.814 0 0 0 261.678 11.042 Q 261.59 11.561 261.59 12.152 L 261.59 20.216 Z M 287.126 20.216 L 284.69 20.216 L 284.69 5.908 L 287.126 5.908 L 287.126 7.784 A 4.316 4.316 0 0 1 287.657 6.89 A 3.366 3.366 0 0 1 288.477 6.132 Q 289.338 5.572 290.514 5.572 A 3.87 3.87 0 0 1 291.649 5.732 A 3.208 3.208 0 0 1 292.726 6.3 L 292.362 8.596 A 3.435 3.435 0 0 0 291.665 8.217 A 3.071 3.071 0 0 0 291.403 8.127 Q 290.906 7.98 290.318 7.98 A 3.028 3.028 0 0 0 289.369 8.124 A 2.637 2.637 0 0 0 288.638 8.498 A 3.162 3.162 0 0 0 287.79 9.434 A 4.101 4.101 0 0 0 287.525 9.954 A 4.814 4.814 0 0 0 287.214 11.042 Q 287.126 11.561 287.126 12.152 L 287.126 20.216 Z M 238.91 20.216 L 236.474 20.216 L 236.474 1.148 L 238.91 0 L 238.91 20.216 Z M 247.09 20.258 A 6.912 6.912 0 0 0 249.158 20.552 A 7.465 7.465 0 0 0 250.218 20.479 A 5.73 5.73 0 0 0 252.525 19.642 A 5.553 5.553 0 0 0 253.679 18.658 A 6.383 6.383 0 0 0 254.716 17.045 A 7.223 7.223 0 0 0 254.769 16.926 Q 255.161 16.024 255.339 14.95 A 11.663 11.663 0 0 0 255.486 13.048 A 13.823 13.823 0 0 0 255.485 12.913 Q 255.464 10.689 254.723 9.058 A 7.015 7.015 0 0 0 254.469 8.552 A 5.672 5.672 0 0 0 252.539 6.475 A 5.578 5.578 0 0 0 250.874 5.77 A 7.13 7.13 0 0 0 249.158 5.572 A 7.414 7.414 0 0 0 248.105 5.645 A 5.704 5.704 0 0 0 245.791 6.489 A 5.627 5.627 0 0 0 244.672 7.437 A 6.39 6.39 0 0 0 243.6 9.086 Q 243.167 10.031 242.977 11.175 A 11.639 11.639 0 0 0 242.83 13.076 A 13.328 13.328 0 0 0 242.844 13.7 Q 242.901 14.901 243.178 15.912 A 6.81 6.81 0 0 0 244.524 18.543 A 5.403 5.403 0 0 0 247.09 20.258 Z M 249.158 18.284 A 3.745 3.745 0 0 0 250.497 18.054 A 3.298 3.298 0 0 0 251.993 16.891 A 4.8 4.8 0 0 0 252.723 15.382 Q 252.919 14.717 252.987 13.92 A 10.349 10.349 0 0 0 253.022 13.048 A 9.517 9.517 0 0 0 252.911 11.547 Q 252.684 10.129 251.993 9.198 A 3.275 3.275 0 0 0 249.611 7.835 A 4.345 4.345 0 0 0 249.158 7.812 A 3.842 3.842 0 0 0 247.858 8.022 A 3.26 3.26 0 0 0 246.316 9.191 A 4.667 4.667 0 0 0 245.617 10.613 Q 245.42 11.255 245.343 12.029 A 10.592 10.592 0 0 0 245.294 13.076 Q 245.294 15.526 246.316 16.905 A 3.265 3.265 0 0 0 248.689 18.26 A 4.417 4.417 0 0 0 249.158 18.284 Z M 222.95 9.744 L 222.95 16.352 A 6.722 6.722 0 0 0 223.618 17.105 Q 224.018 17.49 224.444 17.749 A 4.068 4.068 0 0 0 224.532 17.801 Q 225.372 18.284 226.31 18.284 Q 228.116 18.284 229.075 16.926 Q 229.785 15.921 229.969 14.279 A 11.048 11.048 0 0 0 230.034 13.048 Q 230.034 11.292 229.504 10.069 A 4.587 4.587 0 0 0 229.026 9.219 Q 228.018 7.812 226.31 7.812 A 4.054 4.054 0 0 0 225.062 7.999 A 3.621 3.621 0 0 0 224.35 8.316 A 3.789 3.789 0 0 0 223.001 9.658 A 4.482 4.482 0 0 0 222.95 9.744 Z M 105.462 11.928 L 112.798 11.928 A 6.364 6.364 0 0 0 112.692 10.741 A 4.991 4.991 0 0 0 112.399 9.751 Q 112 8.792 111.23 8.246 A 2.928 2.928 0 0 0 109.997 7.751 A 3.928 3.928 0 0 0 109.354 7.7 Q 107.8 7.7 106.687 8.708 A 3.272 3.272 0 0 0 105.866 9.911 Q 105.662 10.408 105.558 11.026 A 7.809 7.809 0 0 0 105.462 11.928 Z M 158.746 11.928 L 166.082 11.928 A 6.364 6.364 0 0 0 165.976 10.741 A 4.991 4.991 0 0 0 165.683 9.751 Q 165.284 8.792 164.514 8.246 A 2.928 2.928 0 0 0 163.281 7.751 A 3.928 3.928 0 0 0 162.638 7.7 Q 161.084 7.7 159.971 8.708 A 3.272 3.272 0 0 0 159.15 9.911 Q 158.946 10.408 158.842 11.026 A 7.809 7.809 0 0 0 158.746 11.928 Z M 270.97 11.928 L 278.306 11.928 A 6.364 6.364 0 0 0 278.2 10.741 A 4.991 4.991 0 0 0 277.907 9.751 Q 277.508 8.792 276.738 8.246 A 2.928 2.928 0 0 0 275.505 7.751 A 3.928 3.928 0 0 0 274.862 7.7 Q 273.308 7.7 272.195 8.708 A 3.272 3.272 0 0 0 271.374 9.911 Q 271.17 10.408 271.066 11.026 A 7.809 7.809 0 0 0 270.97 11.928 Z M 63.91 13.048 L 57.358 13.048 L 57.358 10.696 L 63.91 10.696 L 63.91 13.048 Z" vector-effect="non-scaling-stroke"/></g></svg>